<svg xmlns="http://www.w3.org/2000/svg" xmlns:xlink="http://www.w3.org/1999/xlink" xmlns:inkscape="http://www.inkscape.org/namespaces/inkscape" version="1.1" width="309" height="194" viewBox="0 0 309 194">
<defs>
<path id="font_1_95" d="M.7319946 .08753967C.7319946 .09353638 .7319946 .104537967 .71899417 .104537967 .70799258 .104537967 .70799258 .09555054 .70700076 .08854675 .70098879 .017532349 .66600039-.00047302247 .6409912-.00047302247 .59199526-.00047302247 .58399966 .05053711 .56999209 .14355469L.5569916 .22355652C.5389862 .28756715 .48999024 .3205719 .43499757 .3395691 .5319977 .36357118 .6100006 .4245758 .6100006 .502594 .6100006 .5986023 .49598695 .6826172 .34899903 .6826172H.034988405V.6516113H.05899048C.13598633 .6516113 .13798523 .64060977 .13798523 .604599V.077545169C.13798523 .04197693 .13598633 .0309906 .05899048 .0309906H.034988405V0C.070999149 .0029907227 .14199829 .0029907227 .18099976 .0029907227 .21998596 .0029907227 .29100038 .0029907227 .32699586 0V.0309906H.30299378C.22599793 .0309906 .22399903 .04197693 .22399903 .077926639V.3305359H.33898927C.35499574 .3305359 .39698792 .3305359 .43199159 .29658509 .46998597 .26063539 .46998597 .22969055 .46998597 .16279602 .46998597 .09788513 .46998597 .05795288 .5109863 .019989014 .5519867-.016464234 .6069946-.022460938 .6369934-.022460938 .71499636-.022460938 .7319946 .059524537 .7319946 .087524417V.08753967M.5069885 .5025635C.5069885 .43354798 .48298646 .35253907 .33499146 .35253907H.22399903V.6116028C.22399903 .6345978 .22399903 .64660647 .24598694 .6496124 .2559967 .6516113 .2849884 .6516113 .30499269 .6516113 .394989 .6516113 .5069885 .6476135 .5069885 .5025635Z"/>
<path id="font_1_71" d="M.58200076 .2578125H.5569916C.54599 .15588379 .5319977 .0309906 .35598756 .0309906H.27398683C.22698975 .03060913 .22499085 .037612916 .22499085 .07060242V.6036072C.22499085 .63760378 .22499085 .6516113 .31999208 .6516113H.35299684V.6826172C.31698609 .6796112 .22599793 .6796112 .18499756 .6796112 .1459961 .6796112 .067993167 .6796112 .032989503 .6826172V.6516113H.056991579C.13398743 .6518097 .13598633 .6408081 .13598633 .6048126V.07795715C.13598633 .04197693 .13398743 .0309906 .056991579 .0309906H.032989503V0H.55400088L.58200076 .2578125Z"/>
<path id="font_1_121" d="M.45999146 .31976319C.45999146 .39982606 .45498658 .47988893 .41999818 .5539398 .37399293 .65000918 .2919922 .6660156 .25 .6660156 .18998719 .6660156 .116989139 .64001467 .07598877 .54693606 .04399109 .47789 .038986207 .39982606 .038986207 .31976319 .038986207 .24472046 .042999269 .15464783 .083999637 .07859802 .1269989-.0024719239 .19999695-.022460938 .24899292-.022460938 .30299378-.022460938 .3789978-.0014648438 .4229889 .09359741 .45498658 .16265869 .45999146 .2407074 .45999146 .31976319M.3769989 .3317871C.3769989 .25672914 .3769989 .18867493 .3659973 .12461853 .35099793 .029556275 .2939911-.00047302247 .24899292-.00047302247 .20999146-.00047302247 .15098572 .024551392 .1329956 .12062073 .12199402 .18066406 .12199402 .2727356 .12199402 .3317871 .12199402 .39582826 .12199402 .46188355 .12998963 .5159149 .14898682 .63500979 .22399903 .64401248 .24899292 .64401248 .28199769 .64401248 .34799195 .6259918 .36698915 .52693179 .3769989 .47088624 .3769989 .39482118 .3769989 .3317871Z"/>
<path id="font_1_64" d="M.27598573 .18710327V.24511719H.010986328V.18710327H.27598573Z"/>
<path id="font_1_89" d="M.72099307 .25045777C.72099307 .27046205 .70199587 .27046205 .6879883 .27046205H.40899659V.5500488C.40899659 .5640259 .40899659 .5830078 .3889923 .5830078 .36898805 .5830078 .36898805 .5640259 .36898805 .5500488V.27046205H.08898926C.07499695 .27046205 .055999757 .27046205 .055999757 .25045777 .055999757 .23046875 .07499695 .23046875 .08898926 .23046875H.36898805V-.049972536C.36898805-.0639801 .36898805-.08300781 .3889923-.08300781 .40899659-.08300781 .40899659-.0639801 .40899659-.049972536V.23046875H.6879883C.70199587 .23046875 .72099307 .23046875 .72099307 .25045777Z"/>
</defs>
<path transform="matrix(1.00002,0,0,-1.00005,154.51071,11.572779)" stroke-width=".3985" stroke-linecap="butt" stroke-miterlimit="10" stroke-linejoin="miter" fill="none" stroke="#000000" d="M9.77377 0C9.77377 5.39795 5.39795 9.77377 0 9.77377-5.39795 9.77377-9.77377 5.39795-9.77377 0-9.77377-5.39795-5.39795-9.77377 0-9.77377 5.39795-9.77377 9.77377-5.39795 9.77377 0ZM0 0"/>
<use data-text="R" xlink:href="#font_1_95" transform="matrix(9.962799,0,0,-9.963098,150.84464,14.865944)"/>
<path transform="matrix(1.00002,0,0,-1.00005,154.51071,11.572779)" stroke-width=".3985" stroke-linecap="butt" stroke-miterlimit="10" stroke-linejoin="miter" fill="none" stroke="#000000" d="M-104.08435-56.69362C-104.08435-51.55571-108.24933-47.39073-113.38724-47.39073-118.52513-47.39073-122.69011-51.55571-122.69011-56.69362-122.69011-61.83151-118.52513-65.99649-113.38724-65.99649-108.24933-65.99649-104.08435-61.83151-104.08435-56.69362ZM-113.38724-56.69362"/>
<use data-text="L" xlink:href="#font_1_71" transform="matrix(9.962799,0,0,-9.963098,38.00737,71.67178)"/>
<path transform="matrix(1.00002,0,0,-1.00005,154.51071,11.572779)" stroke-width=".3985" stroke-linecap="butt" stroke-miterlimit="10" stroke-linejoin="miter" fill="none" stroke="#000000" d="M9.30287-56.69362C9.30287-51.55571 5.1379-47.39073 0-47.39073-5.1379-47.39073-9.30287-51.55571-9.30287-56.69362-9.30287-61.83151-5.1379-65.99649 0-65.99649 5.1379-65.99649 9.30287-61.83151 9.30287-56.69362ZM0-56.69362"/>
<use data-text="L" xlink:href="#font_1_71" transform="matrix(9.962799,0,0,-9.963098,151.39765,71.67178)"/>
<path transform="matrix(1.00002,0,0,-1.00005,154.51071,11.572779)" stroke-width=".3985" stroke-linecap="butt" stroke-miterlimit="10" stroke-linejoin="miter" fill="none" stroke="#000000" d="M122.69011-56.69362C122.69011-51.55571 118.52513-47.39073 113.38724-47.39073 108.24933-47.39073 104.08435-51.55571 104.08435-56.69362 104.08435-61.83151 108.24933-65.99649 113.38724-65.99649 118.52513-65.99649 122.69011-61.83151 122.69011-56.69362ZM113.38724-56.69362"/>
<use data-text="L" xlink:href="#font_1_71" transform="matrix(9.962799,0,0,-9.963098,264.78694,71.67178)"/>
<path transform="matrix(1.00002,0,0,-1.00005,154.51071,11.572779)" stroke-width=".3985" stroke-linecap="butt" stroke-miterlimit="10" stroke-linejoin="miter" fill="none" stroke="#000000" d="M-131.96025-113.38724C-131.96025-107.98927-136.33606-103.61345-141.73403-103.61345-147.13199-103.61345-151.5078-107.98927-151.5078-113.38724-151.5078-118.7852-147.13199-123.16101-141.73403-123.16101-136.33606-123.16101-131.96025-118.7852-131.96025-113.38724ZM-141.73403-113.38724"/>
<use data-text="R" xlink:href="#font_1_95" transform="matrix(9.962799,0,0,-9.963098,9.107803,128.2586)"/>
<path transform="matrix(1.00002,0,0,-1.00005,154.51071,11.572779)" stroke-width=".3985" stroke-linecap="butt" stroke-miterlimit="10" stroke-linejoin="miter" fill="none" stroke="#000000" d="M-75.26663-113.38724C-75.26663-107.98927-79.64244-103.61345-85.0404-103.61345-90.43837-103.61345-94.81418-107.98927-94.81418-113.38724-94.81418-118.7852-90.43837-123.16101-85.0404-123.16101-79.64244-123.16101-75.26663-118.7852-75.26663-113.38724ZM-85.0404-113.38724"/>
<use data-text="R" xlink:href="#font_1_95" transform="matrix(9.962799,0,0,-9.963098,65.801929,128.2586)"/>
<path transform="matrix(1.00002,0,0,-1.00005,154.51071,11.572779)" stroke-width=".3985" stroke-linecap="butt" stroke-miterlimit="10" stroke-linejoin="miter" fill="none" stroke="#000000" d="M-18.57301-113.38724C-18.57301-107.98927-22.94882-103.61345-28.34679-103.61345-33.74475-103.61345-38.12056-107.98927-38.12056-113.38724-38.12056-118.7852-33.74475-123.16101-28.34679-123.16101-22.94882-123.16101-18.57301-118.7852-18.57301-113.38724ZM-28.34679-113.38724"/>
<use data-text="R" xlink:href="#font_1_95" transform="matrix(9.962799,0,0,-9.963098,122.49707,128.2586)"/>
<path transform="matrix(1.00002,0,0,-1.00005,154.51071,11.572779)" stroke-width=".3985" stroke-linecap="butt" stroke-miterlimit="10" stroke-linejoin="miter" fill="none" stroke="#000000" d="M38.12056-113.38724C38.12056-107.98927 33.74475-103.61345 28.34679-103.61345 22.94882-103.61345 18.57301-107.98927 18.57301-113.38724 18.57301-118.7852 22.94882-123.16101 28.34679-123.16101 33.74475-123.16101 38.12056-118.7852 38.12056-113.38724ZM28.34679-113.38724"/>
<use data-text="R" xlink:href="#font_1_95" transform="matrix(9.962799,0,0,-9.963098,179.19121,128.2586)"/>
<path transform="matrix(1.00002,0,0,-1.00005,154.51071,11.572779)" stroke-width=".3985" stroke-linecap="butt" stroke-miterlimit="10" stroke-linejoin="miter" fill="none" stroke="#000000" d="M94.81418-113.38724C94.81418-107.98927 90.43837-103.61345 85.0404-103.61345 79.64244-103.61345 75.26663-107.98927 75.26663-113.38724 75.26663-118.7852 79.64244-123.16101 85.0404-123.16101 90.43837-123.16101 94.81418-118.7852 94.81418-113.38724ZM85.0404-113.38724"/>
<use data-text="R" xlink:href="#font_1_95" transform="matrix(9.962799,0,0,-9.963098,235.88636,128.2586)"/>
<path transform="matrix(1.00002,0,0,-1.00005,154.51071,11.572779)" stroke-width=".3985" stroke-linecap="butt" stroke-miterlimit="10" stroke-linejoin="miter" fill="none" stroke="#000000" d="M151.5078-113.38724C151.5078-107.98927 147.13199-103.61345 141.73403-103.61345 136.33606-103.61345 131.96025-107.98927 131.96025-113.38724 131.96025-118.7852 136.33606-123.16101 141.73403-123.16101 147.13199-123.16101 151.5078-118.7852 151.5078-113.38724ZM141.73403-113.38724"/>
<use data-text="R" xlink:href="#font_1_95" transform="matrix(9.962799,0,0,-9.963098,292.58149,128.2586)"/>
<path transform="matrix(1.00002,0,0,-1.00005,154.51071,11.572779)" stroke-width=".3985" stroke-linecap="butt" stroke-miterlimit="10" stroke-linejoin="miter" fill="none" stroke="#000000" d="M-131.05422-170.08086C-131.05422-164.18248-135.83567-159.40103-141.73403-159.40103-147.6324-159.40103-152.41385-164.18248-152.41385-170.08086-152.41385-175.97922-147.6324-180.76067-141.73403-180.76067-135.83567-180.76067-131.05422-175.97922-131.05422-170.08086ZM-141.73403-170.08086"/>
<use data-text="0" xlink:href="#font_1_121" transform="matrix(9.962799,0,0,-9.963098,7.7927706,184.87042)"/>
<use data-text="0" xlink:href="#font_1_121" transform="matrix(9.962799,0,0,-9.963098,12.77417,184.87042)"/>
<path transform="matrix(1.00002,0,0,-1.00005,154.51071,11.572779)" stroke-width=".3985" stroke-linecap="butt" stroke-miterlimit="10" stroke-linejoin="miter" fill="none" stroke="#000000" d="M-73.9826-170.08086C-73.9826-163.97373-78.93329-159.02306-85.0404-159.02306-91.14752-159.02306-96.0982-163.97373-96.0982-170.08086-96.0982-176.18798-91.14752-181.13864-85.0404-181.13864-78.93329-181.13864-73.9826-176.18798-73.9826-170.08086ZM-85.0404-170.08086"/>
<use data-text="-" xlink:href="#font_1_64" transform="matrix(9.962799,0,0,-9.963098,63.9339,184.1534)"/>
<use data-text="+" xlink:href="#font_1_89" transform="matrix(9.962799,0,0,-9.963098,67.25151,184.1534)"/>
<path transform="matrix(1.00002,0,0,-1.00005,154.51071,11.572779)" stroke-width=".3985" stroke-linecap="butt" stroke-miterlimit="10" stroke-linejoin="miter" fill="none" stroke="#000000" d="M-17.28899-170.08086C-17.28899-163.97373-22.23967-159.02306-28.34679-159.02306-34.4539-159.02306-39.40459-163.97373-39.40459-170.08086-39.40459-176.18798-34.4539-181.13864-28.34679-181.13864-22.23967-181.13864-17.28899-176.18798-17.28899-170.08086ZM-28.34679-170.08086"/>
<use data-text="-" xlink:href="#font_1_64" transform="matrix(9.962799,0,0,-9.963098,120.62903,184.1534)"/>
<use data-text="+" xlink:href="#font_1_89" transform="matrix(9.962799,0,0,-9.963098,123.94664,184.1534)"/>
<path transform="matrix(1.00002,0,0,-1.00005,154.51071,11.572779)" stroke-width=".3985" stroke-linecap="butt" stroke-miterlimit="10" stroke-linejoin="miter" fill="none" stroke="#000000" d="M39.40459-170.08086C39.40459-163.97373 34.4539-159.02306 28.34679-159.02306 22.23967-159.02306 17.28899-163.97373 17.28899-170.08086 17.28899-176.18798 22.23967-181.13864 28.34679-181.13864 34.4539-181.13864 39.40459-176.18798 39.40459-170.08086ZM28.34679-170.08086"/>
<use data-text="-" xlink:href="#font_1_64" transform="matrix(9.962799,0,0,-9.963098,177.32317,184.1534)"/>
<use data-text="+" xlink:href="#font_1_89" transform="matrix(9.962799,0,0,-9.963098,180.64078,184.1534)"/>
<path transform="matrix(1.00002,0,0,-1.00005,154.51071,11.572779)" stroke-width=".3985" stroke-linecap="butt" stroke-miterlimit="10" stroke-linejoin="miter" fill="none" stroke="#000000" d="M96.0982-170.08086C96.0982-163.97373 91.14752-159.02306 85.0404-159.02306 78.93329-159.02306 73.9826-163.97373 73.9826-170.08086 73.9826-176.18798 78.93329-181.13864 85.0404-181.13864 91.14752-181.13864 96.0982-176.18798 96.0982-170.08086ZM85.0404-170.08086"/>
<use data-text="-" xlink:href="#font_1_64" transform="matrix(9.962799,0,0,-9.963098,234.01831,184.1534)"/>
<use data-text="+" xlink:href="#font_1_89" transform="matrix(9.962799,0,0,-9.963098,237.3359,184.1534)"/>
<path transform="matrix(1.00002,0,0,-1.00005,154.51071,11.572779)" stroke-width=".3985" stroke-linecap="butt" stroke-miterlimit="10" stroke-linejoin="miter" fill="none" stroke="#000000" d="M152.41385-170.08086C152.41385-164.18248 147.6324-159.40103 141.73403-159.40103 135.83567-159.40103 131.05422-164.18248 131.05422-170.08086 131.05422-175.97922 135.83567-180.76067 141.73403-180.76067 147.6324-180.76067 152.41385-175.97922 152.41385-170.08086ZM141.73403-170.08086"/>
<use data-text="0" xlink:href="#font_1_121" transform="matrix(9.962799,0,0,-9.963098,291.26646,184.87042)"/>
<use data-text="0" xlink:href="#font_1_121" transform="matrix(9.962799,0,0,-9.963098,296.24787,184.87042)"/>
<path transform="matrix(1.00002,0,0,-1.00005,154.51071,11.572779)" stroke-width=".79701" stroke-linecap="butt" stroke-miterlimit="10" stroke-linejoin="miter" fill="none" stroke="#000000" d="M-8.91948-4.45964-104.88887-52.4445"/>
<path transform="matrix(1.00002,0,0,-1.00005,154.51071,11.572779)" stroke-width=".79701" stroke-linecap="butt" stroke-miterlimit="10" stroke-linejoin="miter" fill="none" stroke="#000000" d="M0-9.973V-47.19147"/>
<path transform="matrix(1.00002,0,0,-1.00005,154.51071,11.572779)" stroke-width=".79701" stroke-linecap="butt" stroke-miterlimit="10" stroke-linejoin="miter" fill="none" stroke="#000000" d="M8.91948-4.45964 104.88887-52.4445"/>
<path transform="matrix(1.00002,0,0,-1.00005,154.51071,11.572779)" stroke-width=".79701" stroke-linecap="butt" stroke-miterlimit="10" stroke-linejoin="miter" fill="none" stroke="#000000" d="M-141.73403-159.20177V-123.36024M-137.27434-104.46771-117.63634-65.19194M-109.13812-65.19194-89.50006-104.46771M-85.0404-123.36024V-158.82379"/>
<path transform="matrix(1.00002,0,0,-1.00005,154.51071,11.572779)" stroke-width=".79701" stroke-linecap="butt" stroke-miterlimit="10" stroke-linejoin="miter" fill="none" stroke="#000000" d="M-28.34679-158.82379V-123.36024M-23.8871-104.46771-4.2491-65.19194M4.2491-65.19194 23.8871-104.46771M28.34679-123.36024V-158.82379"/>
<path transform="matrix(1.00002,0,0,-1.00005,154.51071,11.572779)" stroke-width=".79701" stroke-linecap="butt" stroke-miterlimit="10" stroke-linejoin="miter" fill="none" stroke="#000000" d="M85.0404-158.82379V-123.36024M89.50006-104.46771 109.13812-65.19194M117.63634-65.19194 137.27434-104.46771M141.73403-123.36024V-159.20177"/>
</svg>
